<svg width="30" height="30" viewBox="0 0 30 30" fill="none" xmlns="http://www.w3.org/2000/svg">
<path d="M15 30C23.2843 30 30 23.2843 30 15C30 6.71573 23.2843 0 15 0C6.71573 0 0 6.71573 0 15C0 23.2843 6.71573 30 15 30Z" fill="#4CAF50"/>
<path d="M21.0899 22.0702V22.0715C20.8362 22.0715 20.6787 21.9927 20.4424 21.854C16.6687 19.579 12.2774 19.484 7.93992 20.3727C7.70367 20.434 7.39492 20.5302 7.21992 20.5302C6.63242 20.5302 6.26367 20.064 6.26367 19.574C6.26367 18.9502 6.63242 18.654 7.08742 18.5577C12.0412 17.464 17.1037 17.5602 21.4212 20.1427C21.7899 20.379 22.0087 20.5902 22.0087 21.1402C22.0087 21.6877 21.5787 22.0702 21.0899 22.0702Z" fill="#212121"/>
<path d="M22.7188 18.1039H22.7176C22.4026 18.1039 22.1913 17.9652 21.9726 17.8502C18.1913 15.6127 12.5563 14.7102 7.5413 16.0714C7.2513 16.1502 7.0938 16.2289 6.8213 16.2289C6.1738 16.2289 5.6488 15.7027 5.6488 15.0564C5.6488 14.4102 5.9638 13.9802 6.5863 13.8052C8.26755 13.3327 9.98505 12.9814 12.5013 12.9814C16.4263 12.9814 20.2188 13.9552 23.2076 15.7339C23.6976 16.0239 23.8913 16.4002 23.8913 16.9252C23.8851 17.5764 23.3776 18.1039 22.7188 18.1039Z" fill="#212121"/>
<path d="M5.68507 8.74761C7.81382 8.12386 10.1976 7.82886 12.7926 7.82886C17.2076 7.82886 21.8351 8.74761 25.2163 10.7201C25.6888 10.9926 25.9963 11.3676 25.9963 12.0864C25.9963 12.9089 25.3301 13.4951 24.5938 13.4951L24.5926 13.4939C24.2776 13.4939 24.0838 13.4151 23.8113 13.2576C19.5063 10.6876 11.8051 10.0714 6.82257 11.4626C6.60382 11.5226 6.33132 11.6189 6.04132 11.6189C5.24257 11.6189 4.63257 10.9951 4.63257 10.1914C4.63257 9.37011 5.14132 8.90511 5.68507 8.74761Z" fill="#212121"/>
</svg>
